<svg width="169" height="125" viewBox="0 0 169 125" fill="none" xmlns="http://www.w3.org/2000/svg">
<path d="M105.404 118.031L93.2687 109.214L139.865 45.0798L152 53.8966L105.404 118.031Z" fill="#0098B3"/>
<path d="M157.745 45.9896L149.158 57.8086L121.439 37.6697L102.847 24.1684L105.847 7.16842L157.745 45.9896Z" fill="#0098B3"/>
<path d="M119.818 69.1559L111.002 81.2911L95.8471 70.6684L94.3471 69.6684L97.8471 53.1684L119.818 69.1559Z" fill="#0098B3"/>
<path d="M119.818 69.1559L111.002 81.2911L95.8471 70.6684L94.3471 69.6684L97.8471 53.1684L119.818 69.1559Z" fill="#0098B3"/>
<path d="M100.535 96.1099L91.7388 108.217L87.8471 105.389L90.8471 89.1684L100.535 96.1099Z" fill="#0098B3"/>
<path d="M75.8469 118.168L64.8469 118.168L87.3468 7.16985L97.3471 7.16811L75.8469 118.168Z" fill="#0098B3"/>
<path d="M62 7L75 16L22.9737 92.9845L11 84L62 7Z" fill="#0098B3"/>
<path d="M22.9999 74L59 103L55.0757 117.992L11 84L22.9999 74Z" fill="#0098B3"/>
</svg>
